<svg width="32" height="40" xmlns="http://www.w3.org/2000/svg"><path d="M26.727 21.489a8.995 8.995 0 0 1 4.257-7.539 9.137 9.137 0 0 0-7.21-3.917c-3.032-.32-5.973 1.824-7.518 1.824-1.576 0-3.956-1.793-6.518-1.74a9.594 9.594 0 0 0-8.08 4.953C-1.833 21.15.772 30.084 4.119 35c1.674 2.406 3.63 5.094 6.19 4.999 2.506-.105 3.442-1.606 6.466-1.606 2.996 0 3.874 1.606 6.486 1.545 2.688-.044 4.382-2.417 5.997-4.846A19.946 19.946 0 0 0 32 29.476a8.683 8.683 0 0 1-5.273-7.987zm-4.79-15.232A8.62 8.62 0 0 0 23.973 0a9.125 9.125 0 0 0-5.865 2.975A8.208 8.208 0 0 0 16.018 9a7.554 7.554 0 0 0 5.918-2.743z" fill="#FFF" fill-rule="nonzero"/></svg>