<svg width="41" height="41" xmlns="http://www.w3.org/2000/svg"><path d="M26.891 2.682c.345 0 .626.28.626.624v19.183a.625.625 0 0 1-1.25 0V4.052a17.611 17.611 0 0 1-12.008-2.393l-.5-.305-.5.305A17.622 17.622 0 0 1 1.25 4.052v18.437a12.61 12.61 0 0 0 1.73 6.386 12.143 12.143 0 0 0 5.63 5.013l5.147 2.252 5.15-2.253c.276-.121.546-.251.81-.391a.624.624 0 1 1 .587 1.103c-.291.154-.59.298-.894.431l-5.402 2.364c-.16.07-.341.07-.5 0l-5.4-2.364a13.382 13.382 0 0 1-6.205-5.523A13.858 13.858 0 0 1 0 22.492V3.306a.625.625 0 0 1 .75-.614c4.076.834 8.316.085 11.856-2.094l.825-.506a.626.626 0 0 1 .655 0l.824.506c3.54 2.18 7.781 2.93 11.856 2.097a.625.625 0 0 1 .125-.013zM14.193 4.805a.624.624 0 0 1-.26.844 14.952 14.952 0 0 1-9.7 1.892v14.172a9.318 9.318 0 0 0 1.385 4.88 9.61 9.61 0 0 0 4.516 3.847.624.624 0 1 1-.484 1.152 10.855 10.855 0 0 1-5.098-4.346 10.56 10.56 0 0 1-1.57-5.533V6.803a.625.625 0 0 1 .75-.612 13.72 13.72 0 0 0 9.616-1.646.626.626 0 0 1 .845.26zM32.165 41c-4.879 0-8.834-3.947-8.834-8.817s3.955-8.817 8.834-8.817c4.88 0 8.835 3.948 8.835 8.817C41 37.053 37.045 41 32.165 41zm0-1.102c4.27 0 7.73-3.454 7.73-7.715 0-4.26-3.46-7.715-7.73-7.715-4.269 0-7.73 3.454-7.73 7.715 0 4.26 3.461 7.715 7.73 7.715zm2.698-10.744a.54.54 0 0 1 .053.763l-1.842 1.842c.026.09.04.183.04.276a1.082 1.082 0 0 1-1.381 1.042 1.068 1.068 0 0 1-.739-1.318l-3.26-3.26a.54.54 0 0 1 .765-.765l3.26 3.26a.962.962 0 0 1 .554 0l1.842-1.842a.541.541 0 0 1 .708.002zM23.58 13.912a.623.623 0 0 1 0 .882L12.95 25.404a.626.626 0 0 1-.884 0l-5.003-4.993a.623.623 0 0 1 0-.882l2.501-2.497a.626.626 0 0 1 .884 0l2.06 2.056 7.688-7.673a.626.626 0 0 1 .884 0l2.501 2.497zM12.508 24.08l9.75-9.728-1.62-1.614-7.684 7.672a.626.626 0 0 1-.884 0l-2.064-2.055-1.615 1.614 4.117 4.11z" fill="#3B5998" fill-rule="nonzero"/></svg>