<svg width="45" height="51" xmlns="http://www.w3.org/2000/svg"><path d="M11.545 5.687a.99.99 0 0 1-.035 1.409l-.066.062c-.195.186-.446.279-.697.279-.263 0-.526-.102-.723-.305a.99.99 0 0 1 .026-1.408l.075-.071a1.01 1.01 0 0 1 1.42.034zm20.26 39.43a1 1 0 0 1 .294.703.999.999 0 0 1-1.005.996.999.999 0 0 1-1.004-.996 1 1 0 0 1 1.004-.996c.264 0 .524.107.71.292zm-.711-17.826c1.883 0 3.415 1.52 3.415 3.387 0 1.521-1.016 2.81-2.41 3.237v7.954a1 1 0 0 1-1.005.996 1 1 0 0 1-1.004-.996v-7.954a3.396 3.396 0 0 1-2.411-3.237c0-1.867 1.532-3.387 3.415-3.387zm0 4.782c.775 0 1.406-.626 1.406-1.395s-.63-1.394-1.406-1.394c-.775 0-1.406.625-1.406 1.394 0 .77.63 1.395 1.406 1.395zm12.852 16.935a1 1 0 0 1 1.004.996 1 1 0 0 1-1.004.996H1.052a1 1 0 0 1-1.004-.996 1 1 0 0 1 1.004-.996h19.042v-1.49a1.903 1.903 0 0 0-1.908-1.892h-6.32c-3.283 0-5.953-2.648-5.953-5.903v-6.192h-4.86c-.319 0-.618-.15-.807-.403a.99.99 0 0 1-.155-.883L3.75 20.28A20.251 20.251 0 0 1 7.376 8.85a1.01 1.01 0 0 1 1.397-.255.99.99 0 0 1 .257 1.385 18.274 18.274 0 0 0-3.272 10.45.988.988 0 0 1-.043.289l-3.308 10.82h4.51a1 1 0 0 1 1.005.995v7.19c0 2.156 1.769 3.91 3.943 3.91h6.32c2.16 0 3.918 1.742 3.918 3.884v1.49h3.526v-8.154l-1.514-1.5a3.417 3.417 0 0 1-1.596.394c-1.883 0-3.415-1.52-3.415-3.387s1.532-3.386 3.415-3.386 3.415 1.519 3.415 3.386c0 .572-.144 1.111-.398 1.584l1.808 1.792c.188.187.294.44.294.704v8.567h9.452V39.2c0-2.036.618-3.995 1.788-5.663 2.545-3.63 4.14-8.902 4.062-13.43-.113-6.602-3.738-12.347-9.078-15.512v13.333l1.514 1.5a3.417 3.417 0 0 1 1.597-.394c1.883 0 3.415 1.52 3.415 3.387 0 1.868-1.532 3.387-3.415 3.387s-3.415-1.52-3.415-3.387c0-.572.144-1.111.397-1.584l-1.807-1.791a.992.992 0 0 1-.295-.705V3.564a18.562 18.562 0 0 0-4.215-1.281v8.845a3.396 3.396 0 0 1 2.411 3.237c0 1.867-1.532 3.386-3.415 3.386s-3.415-1.519-3.415-3.386c0-1.521 1.016-2.811 2.41-3.237V2.037a18.894 18.894 0 0 0-4.517.235v16.07a.992.992 0 0 1-.294.705l-1.808 1.791c.254.473.398 1.012.398 1.584 0 1.868-1.532 3.387-3.415 3.387s-3.415-1.52-3.415-3.387 1.532-3.386 3.415-3.386c.576 0 1.12.142 1.596.394l1.514-1.5V2.736a18.563 18.563 0 0 0-5.12 2.385 1.01 1.01 0 0 1-1.393-.27.99.99 0 0 1 .272-1.383A20.634 20.634 0 0 1 24.012.003C29.53-.085 34.74 1.947 38.685 5.728c3.946 3.78 6.17 8.876 6.264 14.347.085 4.994-1.609 10.588-4.422 14.6a7.845 7.845 0 0 0-1.428 4.527v9.806h4.847zM15.993 23.817c.775 0 1.406-.626 1.406-1.395s-.63-1.394-1.406-1.394c-.776 0-1.406.625-1.406 1.394 0 .77.63 1.395 1.406 1.395zm12.047-9.453c0-.769-.63-1.394-1.406-1.394-.776 0-1.407.625-1.407 1.394 0 .77.631 1.395 1.407 1.395.775 0 1.406-.626 1.406-1.395zm8.933 6.664c-.776 0-1.407.625-1.407 1.394 0 .77.631 1.395 1.407 1.395.775 0 1.406-.626 1.406-1.395s-.631-1.394-1.406-1.394zM22.519 37.756c.775 0 1.406-.626 1.406-1.395s-.631-1.394-1.406-1.394c-.776 0-1.407.625-1.407 1.394 0 .77.631 1.395 1.407 1.395z" fill="#FFF" fill-rule="evenodd"/></svg>