<svg width="55" height="50" xmlns="http://www.w3.org/2000/svg"><path d="M36.977 12.007a1.195 1.195 0 0 1-1.192-1.19c0-.656.536-1.191 1.192-1.191h1.789c.656 0 1.192.535 1.192 1.19 0 .655-.536 1.19-1.192 1.19h-1.789zM54.625 1.41a2.368 2.368 0 0 1-.238 2.5L33.4 30.281v11.726c0 1.13-.537 2.202-1.49 2.916l-6.618 4.584a2.323 2.323 0 0 1-1.372.416c-.417 0-.775-.119-1.132-.297a2.335 2.335 0 0 1-1.252-2.084V30.34L.489 3.91a2.368 2.368 0 0 1-.238-2.5C.668.637 1.503.101 2.397.101H52.48c.894 0 1.729.477 2.146 1.31zM31.254 29.15L52.479 2.483H2.397l5.724 7.143h23.49c.656 0 1.193.535 1.193 1.19 0 .655-.537 1.19-1.193 1.19H9.97l13.474 16.905c.299.179.477.536.477.953v17.678l6.618-4.583a1.27 1.27 0 0 0 .477-1.012V29.864c0-.298.12-.536.239-.715z" fill="#FFF" fill-rule="evenodd"/></svg>