<svg width="37" height="37" xmlns="http://www.w3.org/2000/svg"><path d="M26.23 27.857c2.764.57 4.77 3.022 4.77 5.831v2.601c0 .393-.32.711-.714.711h-1.857a.713.713 0 0 1-.715-.71c0-.393.32-.712.715-.712h1.142v-1.89c0-2.138-1.527-4.005-3.63-4.438l-4.058-.836a2.227 2.227 0 0 1-.666-.255l-2.628 4.165a.715.715 0 0 1-1.21 0l-2.626-4.164a2.223 2.223 0 0 1-.665.254l-4.031.833c-2.102.435-3.628 2.301-3.628 4.438v1.893H21.57c.395 0 .715.319.715.711 0 .393-.32.711-.715.711H5.714A.713.713 0 0 1 5 36.29v-2.605c0-2.807 2.005-5.259 4.766-5.83l4.031-.833a.813.813 0 0 0 .647-.792v-1.098a6.005 6.005 0 0 1-2.493-4.865V16.02C11.951 12.7 14.665 10 18 10c3.335 0 6.049 2.7 6.049 6.02v4.247a6.006 6.006 0 0 1-2.525 4.887v1.076c0 .381.273.714.648.791l4.058.836zM13.38 16.02v1.4h2.762a8.448 8.448 0 0 0 5.998-2.473l.277-.276A4.626 4.626 0 0 0 18 11.421c-2.548 0-4.62 2.063-4.62 4.599zm4.604 14.589l2.261-3.584a2.2 2.2 0 0 1-.15-.795v-.317a6.045 6.045 0 0 1-2.095.373 6.044 6.044 0 0 1-2.127-.385v.33a2.2 2.2 0 0 1-.15.795l2.261 3.583zM18 24.864c2.548 0 4.62-2.062 4.62-4.597v-3.824a9.866 9.866 0 0 1-6.478 2.398H13.38v1.426c0 2.535 2.072 4.597 4.62 4.597zm7.854 11.283a.504.504 0 0 1 0 .706.504.504 0 0 1-.707 0 .504.504 0 0 1 0-.706.504.504 0 0 1 .707 0zM21.259 0c.41 0 .741.309.741.69v6.62c0 .381-.332.69-.74.69h-6.52c-.408 0-.74-.309-.74-.69V.69c0-.381.332-.69.74-.69h6.52zm-.74 6.62V1.38H15.48v5.24h5.038zM7.259 0C7.67 0 8 .309 8 .69v6.62c0 .381-.332.69-.74.69H.74C.333 8 0 7.691 0 7.31V.69C0 .309.332 0 .74 0h6.52zm-.74 6.62V1.38H1.48v5.24H6.52zM36.259 0c.41 0 .741.309.741.69v6.62c0 .381-.332.69-.74.69h-6.52c-.408 0-.74-.309-.74-.69V.69c0-.381.332-.69.74-.69h6.52zm-.74 6.62V1.38H30.48v5.24h5.038zm-25.704 7.3a.632.632 0 0 1-.894.895l-1.736-1.736a.632.632 0 0 1 .894-.894l1.736 1.736zm-4.961-3.774a.505.505 0 0 1 0 .708.503.503 0 0 1-.708 0 .505.505 0 0 1 0-.708.503.503 0 0 1 .708 0zm25.948 1.052a.677.677 0 0 1 0 .958l-2.646 2.646a.675.675 0 0 1-.958 0 .677.677 0 0 1 0-.958l2.646-2.646a.677.677 0 0 1 .958 0z" fill="#3B5998" fill-rule="nonzero"/></svg>