<svg width="47" height="56" xmlns="http://www.w3.org/2000/svg"><path d="M26.312 6.833a1.09 1.09 0 0 1-.608-.185 1.04 1.04 0 0 1-.303-.302 1.118 1.118 0 0 1-.184-.607 1.054 1.054 0 0 1 .084-.418 1.078 1.078 0 0 1 .593-.591 1.08 1.08 0 0 1 1.026.1 1.042 1.042 0 0 1 .303.302 1.052 1.052 0 0 1 .164.394 1.084 1.084 0 0 1-.063.632 1.09 1.09 0 0 1-.797.653 1.107 1.107 0 0 1-.215.022zm-4.508 0H8.073a1.095 1.095 0 1 1 0-2.188h13.73a1.095 1.095 0 1 1 .001 2.188zm-2.347 44.402h-4.53a1.095 1.095 0 1 1 0-2.187h4.53a1.095 1.095 0 1 1 0 2.187zM43.185 9.098a3.734 3.734 0 0 1 3.733 3.726V34.11a3.734 3.734 0 0 1-3.733 3.726h-8.8v14.58A3.593 3.593 0 0 1 30.793 56h-27.2A3.593 3.593 0 0 1 0 52.415V3.585A3.593 3.593 0 0 1 3.592 0h27.2a3.593 3.593 0 0 1 3.593 3.585v5.513h8.8zM32.194 52.415V46.47H2.191v5.945c0 .77.629 1.398 1.401 1.398h27.2c.773 0 1.402-.628 1.402-1.398zm0-8.132v-6.448h-2.715l-8.593 4.418a1.096 1.096 0 0 1-1.597-.973v-3.445h-2.796a3.734 3.734 0 0 1-3.733-3.726V12.824a3.734 3.734 0 0 1 3.733-3.726h15.701V3.585c0-.77-.629-1.397-1.401-1.397h-27.2c-.773 0-1.402.627-1.402 1.397v40.698h30.003zm12.533-10.174V12.824c0-.848-.692-1.539-1.542-1.539H16.493c-.85 0-1.542.69-1.542 1.54v21.284c0 .848.691 1.539 1.542 1.539h3.892c.605 0 1.095.49 1.095 1.093v2.746l7.232-3.718c.155-.08.327-.121.502-.121h13.971c.85 0 1.542-.69 1.542-1.54zm-6.043-16.77c.348.192.565.559.565.957v9.879c0 .398-.217.765-.565.957l-8.315 4.594c-.083.046-.53.262-1.06 0l-8.315-4.594a1.093 1.093 0 0 1-.565-.957v-9.879c0-.398.216-.765.565-.957l8.314-4.594c.33-.182.731-.182 1.061 0l8.315 4.594zm-8.845-2.387l-6.052 3.344 6.052 3.343 6.052-3.343-6.052-3.344zM22.62 20.15v7.38l6.123 3.382v-7.38l-6.123-3.382zm8.314 10.762l6.124-3.383v-7.38l-6.124 3.384v7.38z" fill="#FFF" fill-rule="evenodd"/></svg>