<svg width="32" height="37" xmlns="http://www.w3.org/2000/svg"><path d="M.986 9.473a11.976 11.976 0 0 0-.255 8.879L5.54 30.256v6.127c0 .34.276.617.616.617h14.768c.34 0 .616-.276.616-.617v-5.49l3.746.407a.64.64 0 0 0 .189-.01 3.062 3.062 0 0 0 2.432-3.53l-.373-5.558h3.851a.616.616 0 0 0 .528-.934l-3.604-6.018v-2.296a12.889 12.889 0 0 0-7.11-11.568A12.7 12.7 0 0 0 15.906.014L15.363 0l-.593.054A16.308 16.308 0 0 0 .986 9.473zm.895 8.44a10.733 10.733 0 0 1 .228-7.944 15.11 15.11 0 0 1 13.265-8.73h.493c1.663.062 3.294.485 4.78 1.24a11.667 11.667 0 0 1 6.428 10.475v2.461c0 .015.008.027.008.042a.642.642 0 0 0 .025.123c.01.04.023.08.041.117a.269.269 0 0 0 .014.039l3.132 5.233h-3.464a.617.617 0 0 0-.571.659l.425 6.276c.19.969-.41 1.917-1.365 2.158l-4.33-.47a.603.603 0 0 0-.482.171l-.021.017a.408.408 0 0 0-.021.033.603.603 0 0 0-.096.145.621.621 0 0 0-.026.08.528.528 0 0 0-.032.102c-.002.013.004.028.003.04 0 .013-.007.025-.007.038v5.549H6.77v-5.545c0-.013-.007-.024-.007-.037a.612.612 0 0 0-.037-.276L1.88 17.913zM15 6.35c-2.233-1.97-5.566-1.76-7.553.477-1.987 2.238-1.92 5.704.153 7.856l6.866 7.132a.597.597 0 0 0 .534.176.594.594 0 0 0 .534-.176l6.866-7.132c2.072-2.152 2.14-5.618.153-7.856C20.567 4.59 17.233 4.38 15 6.35zm-6.542 7.442h-.001c-1.66-1.723-1.66-4.516 0-6.24a4.14 4.14 0 0 1 6.009 0l.104.109a.591.591 0 0 0 .858 0l.105-.109a4.14 4.14 0 0 1 6.01 0c1.659 1.724 1.659 4.517 0 6.24L15 20.586l-6.542-6.794zM18.57 7a.57.57 0 1 0 0 1.14c.925 0 1.758.556 2.112 1.408a2.277 2.277 0 0 1-.495 2.486.57.57 0 0 0 .808.806 3.416 3.416 0 0 0 .743-3.728A3.428 3.428 0 0 0 18.57 7z" fill="#3B5998" fill-rule="nonzero"/></svg>