<svg width="41" height="41" xmlns="http://www.w3.org/2000/svg"><path d="M32.133 21.618v-6.705c.03-5.111-3.121-8.501-5.829-9.851a12.986 12.986 0 0 0-2.387-.907v-.428C23.917 1.672 22.384 0 20.5 0s-3.417 1.672-3.417 3.727v.493c-.732.215-1.451.496-2.15.848-2.991 1.505-6.022 5.13-6.05 9.84v6.71c0 4.762-1.541 8.847-4.581 12.144a.795.795 0 0 0-.17.753.706.706 0 0 0 .535.51l6.486 1.222a81.43 81.43 0 0 0 3.379.567C15.724 39.364 18.066 41 20.624 41c2.56 0 4.902-1.637 6.094-4.188a79.935 79.935 0 0 0 3.362-.565l6.485-1.222a.706.706 0 0 0 .536-.51.792.792 0 0 0-.17-.753c-3.183-3.452-4.798-7.538-4.798-12.144zM18.45 3.728c0-1.234.92-2.237 2.05-2.237s2.05 1.003 2.05 2.236v.136a12.468 12.468 0 0 0-4.1.035v-.17zm2.175 35.78c-1.73 0-3.347-.937-4.385-2.47 1.527.17 2.953.257 4.378.257 1.43 0 2.86-.086 4.393-.26-1.038 1.535-2.656 2.473-4.386 2.473zm9.224-4.73a77.494 77.494 0 0 1-3.65.604h-.004c-.501.07-.988.13-1.464.182l-.011.001a41.085 41.085 0 0 1-2.61.198c-.073.003-.146.008-.22.01-.85.031-1.688.031-2.537 0-.076-.002-.153-.007-.229-.01-.353-.015-.709-.035-1.069-.06l-.257-.02c-.41-.032-.823-.069-1.246-.115l-.047-.005a50.39 50.39 0 0 1-1.451-.18h-.006a76.419 76.419 0 0 1-3.664-.607l-5.234-.985c2.722-3.395 4.1-7.483 4.1-12.173v-6.705c.023-4.051 2.657-7.184 5.256-8.491a11.532 11.532 0 0 1 2.39-.882c.006-.001.013 0 .02-.002a11.413 11.413 0 0 1 5.18-.05c.009.001.018-.003.027-.002.89.203 1.768.51 2.613.932 2.521 1.257 5.054 4.369 5.03 8.492v6.709c0 4.497 1.487 8.679 4.314 12.173l-5.231.985zM24.885 8.451c-2.648-1.32-5.89-1.322-8.52.001-1.5.755-4.044 2.962-4.065 6.451-.002.412.301.747.68.75h.003c.375 0 .682-.33.684-.74.015-2.742 2.063-4.5 3.27-5.107 2.275-1.146 5.088-1.143 7.379 0 .343.171.749.007.906-.367.157-.375.005-.817-.337-.988zM3.281 15.127a.795.795 0 0 1 0 1.054c-1.234 1.347-1.914 3.14-1.914 5.051s.68 3.704 1.914 5.052a.793.793 0 0 1 0 1.054.654.654 0 0 1-.483.218.654.654 0 0 1-.483-.218C.822 25.71 0 23.54 0 21.232c0-2.308.822-4.476 2.315-6.105a.643.643 0 0 1 .966 0zM5.675 25.86a.651.651 0 0 1-.483-.218c-2.28-2.487-2.28-6.535 0-9.023a.643.643 0 0 1 .966 0 .793.793 0 0 1 0 1.054c-1.748 1.906-1.748 5.008 0 6.915a.793.793 0 0 1 0 1.054.654.654 0 0 1-.483.218zm33.01-10.732C40.178 16.756 41 18.924 41 21.232c0 2.309-.822 4.478-2.315 6.106a.654.654 0 0 1-.483.218.654.654 0 0 1-.483-.218.793.793 0 0 1 0-1.054c1.234-1.348 1.914-3.141 1.914-5.052 0-1.91-.68-3.704-1.914-5.05a.793.793 0 0 1 0-1.055.643.643 0 0 1 .966 0zm-3.843 1.491a.643.643 0 0 1 .966 0c2.28 2.487 2.28 6.535 0 9.023a.654.654 0 0 1-.483.218.654.654 0 0 1-.483-.218.793.793 0 0 1 0-1.054c1.748-1.906 1.748-5.008 0-6.915a.793.793 0 0 1 0-1.054z" fill="#3B5998" fill-rule="nonzero"/></svg>