<svg xmlns="http://www.w3.org/2000/svg" style="position:absolute; width: 0; height: 0"><symbol id="shape-bullet"><path d="M20 10c0 5.523-4.477 10-10 10S0 15.523 0 10 4.477 0 10 0s10 4.477 10 10zM8.843 15.295l7.42-7.42a.645.645 0 0 0 0-.912l-.913-.912a.645.645 0 0 0-.912 0l-6.05 6.05-2.826-2.824a.645.645 0 0 0-.912 0l-.913.912a.645.645 0 0 0 0 .912l4.194 4.194c.252.252.66.252.912 0z"></path></symbol><symbol viewBox="0 0 473 473" id="shape-chat"><path d="M403.581 69.3c-44.7-44.7-104-69.3-167.2-69.3s-122.5 24.6-167.2 69.3c-86.4 86.4-92.4 224.7-14.9 318-7.6 15.3-19.8 33.1-37.9 42-8.7 4.3-13.6 13.6-12.1 23.2s8.9 17.1 18.5 18.6c4.5.7 10.9 1.4 18.7 1.4 20.9 0 51.7-4.9 83.2-27.6 35.1 18.9 73.5 28.1 111.6 28.1 61.2 0 121.8-23.7 167.4-69.3 44.7-44.7 69.3-104 69.3-167.2s-24.7-122.5-69.4-167.2zm-19.1 315.3c-67.5 67.5-172 80.9-254.2 32.6-5.4-3.2-12.1-2.2-16.4 2.1-.4.2-.8.5-1.1.8-27.1 21-53.7 25.4-71.3 25.4h-.1c20.3-14.8 33.1-36.8 40.6-53.9 1.2-2.9 1.4-5.9.7-8.7-.3-2.7-1.4-5.4-3.3-7.6-73.2-82.7-69.4-208.7 8.8-286.9 81.7-81.7 214.6-81.7 296.2 0 81.8 81.7 81.8 214.5.1 296.2z"></path><circle cx="236.381" cy="236.5" r="16.6"></circle><circle cx="321.981" cy="236.5" r="16.6"></circle><circle cx="150.781" cy="236.5" r="16.6"></circle></symbol><symbol viewBox="0 0 49.652 49.652" id="shape-facebook"><path d="M24.826 0C11.137 0 0 11.137 0 24.826c0 13.688 11.137 24.826 24.826 24.826 13.688 0 24.826-11.138 24.826-24.826C49.652 11.137 38.516 0 24.826 0zM31 25.7h-4.039v14.396h-5.985V25.7h-2.845v-5.088h2.845v-3.291c0-2.357 1.12-6.04 6.04-6.04l4.435.017v4.939h-3.219c-.524 0-1.269.262-1.269 1.386v2.99h4.56L31 25.7z" fill="#FFF"></path></symbol><symbol viewBox="0 0 512 512" id="shape-linkedin"><path d="M256 0c141.168 0 256 114.842 256 256 0 141.148-114.852 256-256 256C114.842 512 0 397.148 0 256 0 114.842 114.842 0 256 0zm65.938 199.45c-27.782 0-40.189 15.27-47.131 25.992v-22.278h-52.322c.68 14.747 0 157.422 0 157.422h52.322v-87.948c0-4.693.3-9.413 1.713-12.773 3.791-9.413 12.394-19.153 26.853-19.153 18.931 0 26.501 14.433 26.501 35.613v84.222h52.335v-90.275c-.026-48.321-25.847-70.821-60.27-70.821zm-180.772 3.714v157.422h52.321V203.164h-52.321zm26.513-75.894c-17.885 0-29.599 11.74-29.599 27.193 0 15.1 11.361 27.194 28.907 27.194h.34c18.25 0 29.612-12.093 29.612-27.194-.353-15.44-11.348-27.193-29.26-27.193z" fill="#FFF" fill-rule="nonzero"></path></symbol><symbol id="shape-safetonet-logo"><g fill="none" fill-rule="evenodd"><path d="M41.206 14.587c0 1.004-.262 1.907-.785 2.707-.524.8-1.29 1.427-2.298 1.88-1.009.453-2.205.68-3.587.68-1.658 0-3.026-.31-4.103-.93a5.438 5.438 0 0 1-1.863-1.783c-.477-.744-.716-1.467-.716-2.169 0-.408.143-.757.43-1.048.286-.29.651-.436 1.094-.436.36 0 .663.114.911.34.249.227.46.563.636 1.008.214.529.445.97.694 1.325.248.355.598.648 1.048.878.451.23 1.043.346 1.777.346 1.008 0 1.828-.233 2.458-.697.63-.464.946-1.044.946-1.739 0-.55-.17-.998-.51-1.342-.34-.343-.78-.606-1.318-.787a23.122 23.122 0 0 0-2.16-.578c-1.208-.279-2.218-.606-3.032-.98-.814-.373-1.46-.883-1.937-1.528-.477-.646-.716-1.448-.716-2.407 0-.914.252-1.726.756-2.435.504-.71 1.234-1.256 2.19-1.637.954-.381 2.077-.572 3.369-.572 1.031 0 1.923.126 2.676.38.752.252 1.377.588 1.874 1.007.496.42.86.86 1.088 1.32.23.46.344.91.344 1.348 0 .4-.143.76-.43 1.081a1.376 1.376 0 0 1-1.071.482c-.39 0-.686-.096-.888-.289-.203-.193-.422-.508-.66-.946-.305-.627-.672-1.115-1.1-1.467-.427-.35-1.115-.526-2.063-.526-.878 0-1.587.19-2.126.572-.538.381-.808.84-.808 1.376 0 .332.092.62.276.86.183.242.435.45.756.624.32.173.646.31.974.407a41.7 41.7 0 0 0 1.628.43c.947.22 1.805.461 2.573.726.767.264 1.42.585 1.96.962a3.99 3.99 0 0 1 1.26 1.433c.302.578.453 1.286.453 2.124zm10.578 3.522c-.756.582-1.488 1.018-2.195 1.309-.706.29-1.5.436-2.378.436-.802 0-1.507-.157-2.114-.47-.608-.314-1.076-.738-1.404-1.275a3.277 3.277 0 0 1-.493-1.744c0-.846.271-1.567.814-2.163.542-.597 1.287-.997 2.234-1.2.2-.046.692-.148 1.479-.307a65.45 65.45 0 0 0 2.023-.436 39.06 39.06 0 0 0 1.828-.481c-.038-.816-.205-1.414-.499-1.795-.294-.382-.903-.572-1.828-.572-.794 0-1.392.11-1.793.328-.402.22-.745.548-1.032.986-.286.438-.489.726-.607.866-.119.14-.373.21-.762.21-.352 0-.656-.112-.912-.334a1.083 1.083 0 0 1-.384-.856c0-.543.195-1.072.585-1.585.39-.514.997-.937 1.822-1.269.825-.332 1.853-.498 3.083-.498 1.376 0 2.457.16 3.244.481.787.321 1.342.829 1.667 1.524.325.694.487 1.615.487 2.763a250.484 250.484 0 0 1-.023 3.534c0 .581.098 1.187.293 1.818.194.63.292 1.036.292 1.217 0 .318-.151.606-.453.867a1.53 1.53 0 0 1-1.026.39c-.32 0-.638-.148-.95-.447-.314-.298-.646-.73-.998-1.297zm-.206-4.474c-.459.167-1.125.342-2 .527s-1.48.321-1.817.408a2.482 2.482 0 0 0-.962.51c-.306.253-.459.606-.459 1.059 0 .468.18.866.539 1.195.359.328.829.492 1.41.492.618 0 1.19-.134 1.713-.402.523-.268.907-.613 1.152-1.036.282-.468.424-1.239.424-2.31v-.443zm5.994-6.082h.745v-.929c0-.966.124-1.734.372-2.304.249-.57.669-.986 1.26-1.246.593-.26 1.405-.391 2.436-.391 1.826 0 2.74.442 2.74 1.325 0 .287-.096.532-.287.736a.897.897 0 0 1-.676.306 4.93 4.93 0 0 1-.63-.068 5.168 5.168 0 0 0-.757-.068c-.565 0-.928.164-1.089.493-.16.328-.24.798-.24 1.41v.736h.767c1.192 0 1.788.355 1.788 1.065 0 .506-.158.827-.475.963-.317.136-.755.204-1.313.204h-.767v8.188c0 .612-.148 1.078-.442 1.4-.294.32-.674.48-1.14.48a1.44 1.44 0 0 1-1.106-.48c-.294-.322-.441-.788-.441-1.4V9.785h-.86c-.466 0-.825-.104-1.077-.312a1 1 0 0 1-.378-.81c0-.74.523-1.11 1.57-1.11zm16.801 6.773h-6.12c.008.703.151 1.322.43 1.858s.65.94 1.112 1.212a2.96 2.96 0 0 0 1.53.408 3.79 3.79 0 0 0 1.026-.13c.309-.087.609-.223.9-.408.29-.185.557-.384.801-.595.245-.211.562-.498.952-.86.16-.137.39-.205.687-.205.321 0 .581.087.78.26.198.174.298.42.298.737 0 .28-.111.606-.333.98-.221.373-.555.732-1.002 1.076-.447.343-1.009.628-1.685.855-.676.226-1.454.34-2.332.34-2.01 0-3.572-.567-4.688-1.7-1.116-1.132-1.673-2.669-1.673-4.61 0-.913.137-1.76.412-2.542a5.593 5.593 0 0 1 1.204-2.01 5.222 5.222 0 0 1 1.948-1.286c.772-.298 1.627-.447 2.567-.447 1.223 0 2.271.255 3.146.764.875.51 1.53 1.169 1.966 1.977.435.808.653 1.63.653 2.469 0 .778-.225 1.282-.676 1.512-.45.23-1.085.345-1.903.345zm-6.12-1.755h5.673c-.076-1.057-.364-1.848-.865-2.373-.5-.525-1.16-.787-1.977-.787-.78 0-1.42.266-1.92.798-.5.533-.804 1.32-.91 2.362zm20.019-6.83h-3.714v12.063c0 .694-.156 1.21-.47 1.546-.313.336-.718.504-1.214.504-.505 0-.915-.17-1.233-.51-.317-.34-.475-.853-.475-1.54V5.74h-3.713c-.581 0-1.013-.126-1.296-.38-.282-.252-.424-.586-.424-1.002 0-.43.147-.77.442-1.02.294-.248.72-.373 1.278-.373h10.819c.588 0 1.025.128 1.312.385.286.257.43.593.43 1.008 0 .416-.146.75-.436 1.003-.29.253-.726.379-1.306.379zm12.32 7.827c0 .92-.145 1.77-.436 2.548a5.618 5.618 0 0 1-1.26 2.005 5.572 5.572 0 0 1-1.971 1.285c-.765.299-1.624.448-2.58.448-.947 0-1.799-.151-2.555-.453a5.598 5.598 0 0 1-3.226-3.29c-.287-.767-.43-1.615-.43-2.543 0-.937.145-1.794.436-2.572a5.585 5.585 0 0 1 1.249-1.993 5.513 5.513 0 0 1 1.971-1.274c.772-.298 1.624-.448 2.556-.448.947 0 1.807.151 2.579.453a5.615 5.615 0 0 1 1.982 1.292 5.56 5.56 0 0 1 1.255 1.993c.287.77.43 1.62.43 2.549zm-3.14 0c0-1.261-.281-2.243-.843-2.945-.561-.703-1.316-1.054-2.263-1.054-.611 0-1.15.157-1.616.47-.466.314-.825.776-1.077 1.388-.253.611-.379 1.325-.379 2.14 0 .808.124 1.514.373 2.119.248.604.603 1.066 1.066 1.387.462.321 1.006.481 1.633.481.947 0 1.702-.353 2.263-1.059.562-.706.843-1.682.843-2.927zm10.257-8.869l6.544 9.786V4.608c0-.641.14-1.123.419-1.444.279-.32.655-.481 1.129-.481.489 0 .874.16 1.157.481.283.321.424.803.424 1.444v13.06c0 1.457-.611 2.186-1.834 2.186a2.48 2.48 0 0 1-.825-.13 2.1 2.1 0 0 1-.687-.414 4.043 4.043 0 0 1-.596-.663 46.025 46.025 0 0 1-.55-.775l-6.384-9.673v9.73c0 .633-.15 1.113-.447 1.438-.298.324-.68.487-1.146.487-.482 0-.867-.165-1.158-.493-.29-.329-.435-.806-.435-1.433V5.118c0-.544.06-.97.183-1.28a1.83 1.83 0 0 1 .722-.832c.336-.215.7-.323 1.089-.323.305 0 .567.049.785.147.218.098.409.23.573.397.164.166.332.38.504.645.172.264.35.54.533.827zm21.913 9.627h-6.12c.008.703.151 1.322.43 1.858s.65.94 1.112 1.212a2.96 2.96 0 0 0 1.53.408 3.79 3.79 0 0 0 1.025-.13c.31-.087.61-.223.9-.408.29-.185.558-.384.802-.595.245-.211.562-.498.952-.86.16-.137.39-.205.687-.205.321 0 .581.087.78.26.198.174.298.42.298.737 0 .28-.111.606-.333.98-.221.373-.556.732-1.003 1.076-.447.343-1.008.628-1.684.855-.677.226-1.454.34-2.333.34-2.01 0-3.572-.567-4.687-1.7-1.116-1.132-1.673-2.669-1.673-4.61 0-.913.137-1.76.412-2.542a5.593 5.593 0 0 1 1.204-2.01 5.222 5.222 0 0 1 1.948-1.286c.772-.298 1.627-.447 2.567-.447 1.223 0 2.271.255 3.146.764.875.51 1.53 1.169 1.966 1.977.435.808.653 1.63.653 2.469 0 .778-.225 1.282-.676 1.512-.451.23-1.085.345-1.903.345zm-6.12-1.755h5.673c-.076-1.057-.365-1.848-.865-2.373-.5-.525-1.16-.787-1.977-.787-.78 0-1.42.266-1.92.798-.5.533-.804 1.32-.91 2.362zm11.507-5.018h.344V5.696c0-.499.013-.89.04-1.173.027-.283.101-.526.223-.73.123-.212.298-.383.528-.515a1.51 1.51 0 0 1 .767-.199c.398 0 .757.148 1.078.442a1.3 1.3 0 0 1 .407.72c.057.282.086.685.086 1.206v2.106h1.146c.443 0 .78.104 1.014.312.233.207.35.474.35.798 0 .416-.167.706-.5.872-.331.166-.807.25-1.426.25h-.584v5.685c0 .484.017.856.051 1.116.034.26.126.472.275.634.15.163.392.244.728.244.183 0 .432-.032.745-.096.313-.065.558-.097.733-.097.253 0 .48.1.682.3a1 1 0 0 1 .304.742c0 .499-.275.88-.825 1.144-.55.265-1.341.397-2.373.397-.978 0-1.719-.163-2.223-.487a2.262 2.262 0 0 1-.991-1.348c-.157-.574-.235-1.34-.235-2.3V9.786h-.413c-.45 0-.794-.106-1.031-.318a1.03 1.03 0 0 1-.356-.804c0-.324.125-.59.373-.798.248-.208.61-.312 1.083-.312z" fill="#FFF"></path><path d="M11.972 13.676c-1.329 0-2.406-1.065-2.406-2.379 0-1.313 1.077-2.378 2.406-2.378 1.329 0 2.406 1.065 2.406 2.378 0 1.314-1.077 2.379-2.406 2.379zm.027-6.972c-1.825 0-3.305-1.5-3.305-3.352C8.694 1.501 10.174 0 11.999 0c1.826 0 3.306 1.5 3.306 3.352 0 1.851-1.48 3.352-3.306 3.352zm4.883 3.533c-.564-1.736.406-3.607 2.167-4.18 1.76-.571 3.645.372 4.21 2.109.563 1.736-.407 3.607-2.167 4.18-1.761.572-3.646-.372-4.21-2.109zm-1.865 5.717c1.477-1.073 3.557-.728 4.645.77 1.088 1.497.773 3.581-.704 4.654-1.477 1.073-3.557.73-4.645-.769-1.088-1.497-.773-3.581.704-4.655zm-6.035 0c1.477 1.074 1.792 3.158.704 4.655-1.088 1.498-3.168 1.842-4.645.77-1.477-1.074-1.792-3.158-.704-4.656 1.088-1.497 3.168-1.842 4.645-.769zm-1.865-5.717c-.564 1.737-2.449 2.68-4.21 2.109-1.76-.573-2.73-2.444-2.166-4.18.564-1.737 2.449-2.68 4.21-2.108 1.76.572 2.73 2.443 2.166 4.18z" fill="#F5B200"></path></g></symbol><symbol viewBox="0 0 49.652 49.652" id="shape-twitter"><path d="M24.826 0C11.137 0 0 11.137 0 24.826c0 13.688 11.137 24.826 24.826 24.826 13.688 0 24.826-11.138 24.826-24.826C49.652 11.137 38.516 0 24.826 0zm11.075 19.144c.011.246.017.494.017.742 0 7.551-5.746 16.255-16.259 16.255-3.227 0-6.231-.943-8.759-2.565.447.053.902.08 1.363.08 2.678 0 5.141-.914 7.097-2.446a5.72 5.72 0 0 1-5.338-3.969 5.76 5.76 0 0 0 2.58-.096 5.715 5.715 0 0 1-4.583-5.603l.001-.072a5.69 5.69 0 0 0 2.587.714 5.71 5.71 0 0 1-2.541-4.755c0-1.048.281-2.03.773-2.874a16.225 16.225 0 0 0 11.777 5.972 5.707 5.707 0 0 1-.147-1.303 5.714 5.714 0 0 1 9.884-3.91 11.406 11.406 0 0 0 3.63-1.387 5.74 5.74 0 0 1-2.516 3.162 11.36 11.36 0 0 0 3.282-.899 11.494 11.494 0 0 1-2.848 2.954z" fill="#FFF"></path></symbol></svg>