<svg width="92" height="90" xmlns="http://www.w3.org/2000/svg"><g fill="none" fill-rule="evenodd"><g transform="translate(32 16)"><circle stroke-opacity=".09" stroke="#FFF" stroke-width="2" cx="29.5" cy="29.5" r="29.5"/><circle stroke-opacity=".2" stroke="#FFF" stroke-width="2" cx="29.5" cy="29.5" r="24.5"/><circle stroke-opacity=".55" stroke="#FFF" stroke-width="2" cx="29.5" cy="29.5" r="19.5"/><circle stroke-opacity=".7" stroke="#FFF" stroke-width="2" cx="29.5" cy="29.5" r="14.5"/><circle stroke-opacity=".85" stroke="#FFF" stroke-width="2" cx="29.5" cy="29.5" r="9.5"/><circle fill="#FFF" cx="29.5" cy="29.5" r="4.5"/></g><path d="M1 90V4a4 4 0 0 1 4-4h52a4 4 0 0 1 4 4v86" fill="#001E3F"/><path d="M1 89V5a4 4 0 0 1 4-4h52a4 4 0 0 1 4 4v84" stroke="#FFF" stroke-width="2" stroke-linecap="square"/><g transform="translate(8 11)"><rect stroke="#FFF" stroke-width="2" x="27" y="56" width="18" height="18" rx="3"/><circle fill="#FF0053" cx="42" cy="59" r="7"/><text font-family="GothamRounded-Bold, Gotham Rounded" font-size="9" font-weight="bold" fill="#FFF"><tspan x="39" y="62">8</tspan></text><rect stroke="#FFF" stroke-width="2" x="1" y="56" width="18" height="18" rx="3"/><circle fill="#FF0053" cx="16" cy="59" r="7"/><text font-family="GothamRounded-Bold, Gotham Rounded" font-size="9" font-weight="bold" fill="#FFF"><tspan x="14" y="62">1</tspan></text><rect stroke="#FFF" stroke-width="2" x="27" y="30" width="18" height="18" rx="3"/><circle fill="#FF0053" cx="42" cy="33" r="7"/><text font-family="GothamRounded-Bold, Gotham Rounded" font-size="9" font-weight="bold" fill="#FFF"><tspan x="39" y="36">2</tspan></text><rect stroke="#FFF" stroke-width="2" x="1" y="30" width="18" height="18" rx="3"/><circle fill="#FF0053" cx="16" cy="33" r="7"/><text font-family="GothamRounded-Bold, Gotham Rounded" font-size="9" font-weight="bold" fill="#FFF"><tspan x="13" y="36">3</tspan></text><rect stroke="#FFF" stroke-width="2" x="27" y="4" width="18" height="18" rx="3"/><circle fill="#FF0053" cx="42" cy="7" r="7"/><text font-family="GothamRounded-Bold, Gotham Rounded" font-size="9" font-weight="bold" fill="#FFF"><tspan x="39" y="10">4</tspan></text><rect stroke="#FFF" stroke-width="2" x="1" y="4" width="18" height="18" rx="3"/><circle fill="#FF0053" cx="16" cy="7" r="7"/><text font-family="GothamRounded-Bold, Gotham Rounded" font-size="9" font-weight="bold" fill="#FFF"><tspan x="13" y="10">2</tspan></text></g><path d="M23.5 7.5h16.031" stroke="#FFF" stroke-width="2" stroke-linecap="round"/></g></svg>