<svg width="53" height="49" xmlns="http://www.w3.org/2000/svg"><path d="M41.538 25.617v-7.945c.038-6.057-4.035-10.074-7.535-11.674a17.758 17.758 0 0 0-3.086-1.074v-.507A4.422 4.422 0 0 0 26.5 0a4.422 4.422 0 0 0-4.417 4.417V5a17.49 17.49 0 0 0-2.779 1.005c-3.867 1.782-7.785 6.079-7.82 11.66v7.95c0 5.643-1.993 10.485-5.923 14.391a.885.885 0 0 0 .472 1.497l8.384 1.448c1.562.27 3 .49 4.368.672 1.541 3.021 4.569 4.96 7.876 4.96 3.308 0 6.336-1.94 7.876-4.962 1.363-.181 2.794-.401 4.347-.67l8.383-1.448a.883.883 0 0 0 .473-1.497c-4.115-4.09-6.202-8.932-6.202-14.39zM23.85 4.417a2.653 2.653 0 0 1 2.65-2.65 2.653 2.653 0 0 1 2.65 2.65v.16a17.563 17.563 0 0 0-5.3.042v-.202zm2.812 42.4c-2.237 0-4.327-1.112-5.669-2.929 1.975.204 3.817.306 5.659.306a54.41 54.41 0 0 0 5.68-.308c-1.343 1.819-3.434 2.93-5.67 2.93zm11.923-5.607c-1.695.293-3.249.53-4.717.717h-.006c-.648.083-1.277.154-1.892.216h-.015c-.565.057-1.116.103-1.662.142l-.306.02c-.473.031-.94.056-1.405.074-.095.003-.19.009-.284.011a48.948 48.948 0 0 1-3.281.001l-.295-.012a53.736 53.736 0 0 1-1.383-.073l-.332-.022a57.236 57.236 0 0 1-1.61-.137l-.061-.005a70.8 70.8 0 0 1-1.876-.214h-.008a107.075 107.075 0 0 1-4.736-.719L7.95 40.041c3.518-4.022 5.3-8.866 5.3-14.424v-7.945c.03-4.801 3.434-8.513 6.794-10.062.999-.46 2.035-.804 3.089-1.045l.027-.003a16.06 16.06 0 0 1 6.696-.06c.011.003.023-.002.034 0 1.152.24 2.286.604 3.379 1.103 3.259 1.49 6.533 5.177 6.502 10.063v7.95c0 5.329 1.921 10.284 5.577 14.425l-6.763 1.167zm-6.417-31.195c-3.423-1.564-7.614-1.566-11.014.002-1.939.894-5.227 3.51-5.254 7.644a.884.884 0 0 0 .878.889h.005c.485 0 .881-.391.884-.878.02-3.248 2.666-5.331 4.226-6.05 2.942-1.359 6.578-1.355 9.54 0a.884.884 0 0 0 .735-1.607zm-27.926 7.91a.882.882 0 0 0-1.25 0A10.161 10.161 0 0 0 0 25.16a10.16 10.16 0 0 0 2.993 7.234.88.88 0 0 0 1.249 0 .882.882 0 0 0 0-1.249 8.407 8.407 0 0 1-2.475-5.985c0-2.264.879-4.39 2.475-5.985a.884.884 0 0 0 0-1.25zm3.094 12.718a.882.882 0 0 0 .625-1.508 5.8 5.8 0 0 1 0-8.194.882.882 0 1 0-1.25-1.249c-2.947 2.948-2.947 7.745 0 10.692a.877.877 0 0 0 .625.259zm42.671-12.718a.882.882 0 1 0-1.249 1.25 8.407 8.407 0 0 1 2.475 5.985c0 2.264-.879 4.39-2.475 5.985a.882.882 0 1 0 1.25 1.25A10.16 10.16 0 0 0 53 25.16c0-2.736-1.063-5.304-2.993-7.235zm-4.968 1.767a.882.882 0 0 0 0 1.25 5.8 5.8 0 0 1 0 8.193.882.882 0 1 0 1.25 1.249c2.947-2.948 2.947-7.745 0-10.692a.882.882 0 0 0-1.25 0z" fill="#FFF" fill-rule="nonzero"/></svg>