<svg width="35" height="61" xmlns="http://www.w3.org/2000/svg"><path d="M30.088 0H4.478A4.485 4.485 0 0 0 0 4.478v52.043C0 58.99 2.01 61 4.478 61h25.61c2.469 0 4.479-2.01 4.479-4.478V4.478A4.485 4.485 0 0 0 30.088 0zM2.033 8.133h30.5v38.634h-30.5V8.133zm2.445-6.1h25.61a2.448 2.448 0 0 1 2.445 2.445V6.1h-30.5V4.478a2.448 2.448 0 0 1 2.445-2.445zm25.61 56.934H4.478a2.448 2.448 0 0 1-2.445-2.445V48.8h30.5v7.722a2.448 2.448 0 0 1-2.445 2.445zm-12.805-9.15a4.07 4.07 0 0 0-4.066 4.066 4.07 4.07 0 0 0 4.066 4.067 4.07 4.07 0 0 0 4.067-4.067 4.07 4.07 0 0 0-4.067-4.066zm0 6.1a2.035 2.035 0 0 1-2.033-2.034c0-1.121.912-2.033 2.033-2.033 1.122 0 2.034.912 2.034 2.033a2.035 2.035 0 0 1-2.034 2.034zM13.217 5.083h4.066a1.016 1.016 0 1 0 0-2.033h-4.066a1.016 1.016 0 1 0 0 2.033zm7.116 0h1.017a1.016 1.016 0 1 0 0-2.033h-1.017a1.016 1.016 0 1 0 0 2.033zm5.084 16.267a5.09 5.09 0 0 0 5.083-5.083 5.09 5.09 0 0 0-5.083-5.084H9.15a5.09 5.09 0 0 0-5.083 5.084v10.587L9.57 21.35h15.846zM6.1 21.946v-5.68a3.054 3.054 0 0 1 3.05-3.05h16.267a3.054 3.054 0 0 1 3.05 3.05 3.054 3.054 0 0 1-3.05 3.05H8.729L6.1 21.947zm19.317 6.52H9.15a5.09 5.09 0 0 0-5.083 5.084 5.09 5.09 0 0 0 5.083 5.083h15.846l5.504 5.505V33.55a5.09 5.09 0 0 0-5.083-5.083zm3.05 10.763l-2.63-2.629H9.15a3.054 3.054 0 0 1-3.05-3.05 3.054 3.054 0 0 1 3.05-3.05h16.267a3.054 3.054 0 0 1 3.05 3.05v5.68z" fill="#FFF" fill-rule="nonzero"/></svg>