
<svg width="512px" height="512px" viewBox="0 0 512 512" version="1.1" xmlns="http://www.w3.org/2000/svg" xmlns:xlink="http://www.w3.org/1999/xlink">
    <g id="Page-1" stroke="none" stroke-width="1" fill="none" fill-rule="evenodd">
        <path d="M256,0 C397.16813,0 512,114.842182 512,256 C512,397.147507 397.147507,512 256,512 C114.842182,512 0,397.147507 0,256 C0,114.842182 114.842182,0 256,0 Z M321.938417,199.450601 C294.156384,199.450601 281.749256,214.720913 274.807016,225.441509 L274.807016,203.163587 L222.485278,203.163587 C223.165121,217.910944 222.485278,360.586388 222.485278,360.586388 L274.807016,360.586388 L274.807016,272.638279 C274.807016,267.94475 275.107716,263.225073 276.519697,259.865081 C280.311127,250.451875 288.913752,240.711821 303.373482,240.711821 C322.304486,240.711821 329.874273,255.145404 329.874273,276.325118 L329.874273,360.547166 L382.209084,360.547166 L382.209084,270.271904 C382.182937,221.950778 356.361989,199.450601 321.938417,199.450601 Z M141.165635,203.163587 L141.165635,360.586388 L193.487373,360.586388 L193.487373,203.163587 L141.165635,203.163587 Z M167.6795,127.269612 C149.794408,127.269612 138.080196,139.009972 138.080196,154.463319 C138.080196,169.563671 149.441413,181.657026 166.986583,181.657026 L167.326504,181.657026 C185.577665,181.657026 196.938882,169.563671 196.938882,154.463319 C196.585887,139.023046 185.590739,127.269612 167.6795,127.269612 Z" id="Combined-Shape" fill="#FFFFFF" fill-rule="nonzero"></path>
    </g>
</svg>