<svg width="36" height="41" xmlns="http://www.w3.org/2000/svg"><path d="M1.887 0l19.235 19.176 5.274-5.296L3.081.362A2.544 2.544 0 0 0 1.887 0zM.277.892C.105 1.202 0 1.568 0 1.979v37.265c0 .3.062.568.167.808L19.846 20.43.278.892zM28.007 14.8l-5.635 5.63 5.635 5.603 6.884-3.958c.978-.568 1.117-1.29 1.11-1.673-.01-.634-.41-1.226-1.083-1.588-.586-.317-4.94-2.864-6.911-4.014zm-6.884 6.885L1.721 41a2.178 2.178 0 0 0 1-.279c.759-.442 16.125-9.365 16.125-9.365l7.578-4.376-5.302-5.295z" fill="#FFF" fill-rule="nonzero"/></svg>