<svg width="43" height="55" xmlns="http://www.w3.org/2000/svg"><path d="M39.38 3.936a.914.914 0 0 0-.183.018A23.925 23.925 0 0 1 21.835.877L20.627.135a.916.916 0 0 0-.958 0l-1.208.742A23.925 23.925 0 0 1 1.1 3.951.916.916 0 0 0 0 4.85v28.152a20.366 20.366 0 0 0 2.788 10.294 19.61 19.61 0 0 0 9.086 8.104l7.908 3.468c.233.102.499.102.732 0l7.911-3.468c.445-.195.883-.406 1.31-.633a.916.916 0 1 0-.86-1.618c-.386.205-.782.396-1.185.573l-7.542 3.307-7.539-3.304a17.794 17.794 0 0 1-8.242-7.356A18.53 18.53 0 0 1 1.832 33V5.945a25.763 25.763 0 0 0 17.583-3.51l.733-.448.733.447a25.748 25.748 0 0 0 17.584 3.511V33a.916.916 0 0 0 1.831 0V4.851a.916.916 0 0 0-.916-.915zM20.08 6.876a.916.916 0 0 0-1.307-.342A20.056 20.056 0 0 1 4.762 8.907a.916.916 0 0 0-1.099.898v21.88a15.517 15.517 0 0 0 2.3 8.119 15.905 15.905 0 0 0 7.466 6.376.916.916 0 1 0 .708-1.69 14.08 14.08 0 0 1-6.612-5.644 13.693 13.693 0 0 1-2.03-7.162V10.89A21.86 21.86 0 0 0 19.7 8.113a.916.916 0 0 0 .382-1.238zm22.604 39.183a.916.916 0 0 0-1.198-.003l-4.38 4.38a1.629 1.629 0 0 0-.936 0l-8.042-8.043a.916.916 0 0 0-1.295 1.295l8.042 8.043a1.809 1.809 0 0 0 1.757 2.3c1.012 0 1.832-.82 1.832-1.832a1.798 1.798 0 0 0-.069-.468l4.38-4.38a.916.916 0 0 0-.091-1.292zm-8.152-25.646L30.87 16.75a.916.916 0 0 0-1.295 0L18.317 28.008 15.3 24.992a.916.916 0 0 0-1.295 0l-3.663 3.664a.916.916 0 0 0 0 1.295l7.326 7.326a.916.916 0 0 0 1.295 0l15.569-15.569a.916.916 0 0 0 0-1.295zM18.317 35.335l-6.028-6.032 2.364-2.368 3.022 3.016a.916.916 0 0 0 1.295 0l11.252-11.259 2.372 2.369-14.277 14.274z" fill="#FFF" fill-rule="nonzero"/></svg>